<svg id="Calque_1" data-name="Calque 1" xmlns="http://www.w3.org/2000/svg" viewBox="0 0 107 33"><defs><style>.cls-1{fill:#ff4c60;}.cls-2{fill:#fff;}</style></defs><g id="Symbols"><g id="header"><g id="Bolby."><path id="_." data-name="." class="cls-1" d="M105.5,26a.82.82,0,0,0,.64-.27.89.89,0,0,0,.26-.63h0V20.35a.94.94,0,0,0-.26-.67.82.82,0,0,0-.64-.27h-4.76a.92.92,0,0,0-.93.94h0V25.1a.86.86,0,0,0,.27.65.92.92,0,0,0,.66.25h4.76Z"/></g></g><path class="cls-2" d="M2.55,25.29a.79.79,0,0,1-.82-.83V2.93A.78.78,0,0,1,2,2.33a.77.77,0,0,1,.59-.23h3a1,1,0,0,1,.73.23,2.21,2.21,0,0,1,.3.36l8.84,13.82V2.93a.81.81,0,0,1,.23-.6.77.77,0,0,1,.57-.23h3.38a.77.77,0,0,1,.59.23.78.78,0,0,1,.24.6V24.46a.82.82,0,0,1-.24.58.75.75,0,0,1-.59.25H16.57a.88.88,0,0,1-.71-.25l-.32-.35L6.73,11.31V24.46a.79.79,0,0,1-.83.83Z"/><path class="cls-2" d="M30.05,25.62a7.07,7.07,0,0,1-3.14-.68,5.67,5.67,0,0,1-2.22-1.84,4.52,4.52,0,0,1,1.07-6.29,11.71,11.71,0,0,1,5-1.86l4.34-.63v-.59a3,3,0,0,0-.59-2,2.63,2.63,0,0,0-2.09-.7,3.25,3.25,0,0,0-1.76.43,3,3,0,0,0-1,1.13.84.84,0,0,1-.77.43H25.75a.75.75,0,0,1-.57-.21A.65.65,0,0,1,25,12.3,2.74,2.74,0,0,1,25.45,11a5.78,5.78,0,0,1,1.32-1.51,7.4,7.4,0,0,1,2.29-1.24,10.23,10.23,0,0,1,3.41-.5,11.41,11.41,0,0,1,3.58.5,6,6,0,0,1,2.39,1.39,5.72,5.72,0,0,1,1.32,2.07,7.23,7.23,0,0,1,.43,2.53V24.46a.85.85,0,0,1-.23.6.81.81,0,0,1-.6.23H36.12a.81.81,0,0,1-.57-.23.85.85,0,0,1-.23-.6V23.23a4.79,4.79,0,0,1-1.16,1.18,5.69,5.69,0,0,1-1.74.88A7.62,7.62,0,0,1,30.05,25.62Zm1.33-3.44a4,4,0,0,0,1.95-.47,3.23,3.23,0,0,0,1.36-1.42,5.26,5.26,0,0,0,.5-2.42V17.3l-3.08.5a6.38,6.38,0,0,0-2.62.9,1.74,1.74,0,0,0-.83,1.45,1.71,1.71,0,0,0,.38,1.1,2.28,2.28,0,0,0,1,.69A3.73,3.73,0,0,0,31.38,22.18Z"/><path class="cls-2" d="M50.6,25.62a7.39,7.39,0,0,1-3-.55,5.79,5.79,0,0,1-2.19-1.59A7,7,0,0,1,44.1,21a12.49,12.49,0,0,1-.56-3.2q0-.63,0-1.14t0-1.11a11,11,0,0,1,.54-3.15,7.67,7.67,0,0,1,1.36-2.47,6.14,6.14,0,0,1,2.19-1.62,7.19,7.19,0,0,1,3-.58,6.76,6.76,0,0,1,2.94.58,6,6,0,0,1,2,1.51V2.59a.79.79,0,0,1,.82-.82h3.42a.75.75,0,0,1,.56.23.81.81,0,0,1,.23.59V24.46a.85.85,0,0,1-.23.6.79.79,0,0,1-.56.23H56.63a.81.81,0,0,1-.57-.23.85.85,0,0,1-.23-.6V23.33A6.46,6.46,0,0,1,53.74,25,6.7,6.7,0,0,1,50.6,25.62Zm1.52-4a3.16,3.16,0,0,0,2-.57,3.24,3.24,0,0,0,1.09-1.42,5.46,5.46,0,0,0,.39-1.86q.06-.63.06-1.26a12,12,0,0,0-.06-1.22,4.81,4.81,0,0,0-.4-1.74,3.45,3.45,0,0,0-1.11-1.35,3.91,3.91,0,0,0-3.93,0,3.09,3.09,0,0,0-1,1.44,7.1,7.1,0,0,0-.38,2,10,10,0,0,0,0,2,7.1,7.1,0,0,0,.38,2,3.09,3.09,0,0,0,1,1.44A3.29,3.29,0,0,0,52.12,21.65Z"/><path class="cls-2" d="M72.5,25.62a8.45,8.45,0,0,1-6-2.12,8.51,8.51,0,0,1-2.37-6.16V15.91a10.06,10.06,0,0,1,1.16-4.39,7,7,0,0,1,2.88-2.81,9.23,9.23,0,0,1,4.34-1,8.82,8.82,0,0,1,4.66,1.14A7.19,7.19,0,0,1,79.93,12a10.32,10.32,0,0,1,.95,4.52v.76a.72.72,0,0,1-.25.56.82.82,0,0,1-.58.24H69.22v.26a5.29,5.29,0,0,0,.41,1.94,3.42,3.42,0,0,0,1.09,1.41,2.83,2.83,0,0,0,1.71.53A3.5,3.5,0,0,0,73.79,22a3.34,3.34,0,0,0,.88-.57,4.53,4.53,0,0,0,.51-.56,1.66,1.66,0,0,1,.48-.41,1.4,1.4,0,0,1,.58-.09h3.45a.76.76,0,0,1,.54.19.52.52,0,0,1,.18.51,2.88,2.88,0,0,1-.54,1.31,6.36,6.36,0,0,1-1.51,1.52,8.51,8.51,0,0,1-2.47,1.24A10.34,10.34,0,0,1,72.5,25.62ZM69.22,15.05h6.49V15a5.29,5.29,0,0,0-.38-2.08A3,3,0,0,0,72.46,11a3,3,0,0,0-1.75.5,3.08,3.08,0,0,0-1.11,1.37A5.12,5.12,0,0,0,69.22,15Z"/><path class="cls-2" d="M85,25.29a.81.81,0,0,1-.57-.23.85.85,0,0,1-.23-.6V8.89a.83.83,0,0,1,.23-.58A.75.75,0,0,1,85,8.06h3.24a.85.85,0,0,1,.83.83v1.32a5.7,5.7,0,0,1,2-1.59,6.66,6.66,0,0,1,2.8-.56h1.42a.79.79,0,0,1,.57.23.85.85,0,0,1,.23.6v2.85a.85.85,0,0,1-.23.6.79.79,0,0,1-.57.23H92.41a3.14,3.14,0,0,0-2.29.81,3.09,3.09,0,0,0-.83,2.3v8.78a.79.79,0,0,1-.82.83Z"/></g></svg>