<svg id="Calque_1" data-name="Calque 1" xmlns="http://www.w3.org/2000/svg" viewBox="0 0 32 26"><defs><style>.cls-1{fill:#ff4c60;}.cls-2{fill:#fff;}</style></defs><g id="Symbols"><g id="header-2"><g id="header"><g id="B."><path id="_." data-name="." class="cls-1" d="M30.87,26a.86.86,0,0,0,.65-.27.93.93,0,0,0,.25-.63h0V20.35a1,1,0,0,0-.25-.67.86.86,0,0,0-.65-.27H26.12a.92.92,0,0,0-.94.94h0V25.1a.86.86,0,0,0,.27.65.93.93,0,0,0,.67.25h4.75Z"/></g></g></g><path class="cls-2" d="M1.66,26A.9.9,0,0,1,1,25.74a.86.86,0,0,1-.26-.66V1.24A.86.86,0,0,1,1,.58.86.86,0,0,1,1.66.32H5a1.06,1.06,0,0,1,.8.26,1.81,1.81,0,0,1,.33.4l9.8,15.3v-15a.89.89,0,0,1,.25-.66.84.84,0,0,1,.63-.26h3.74a.86.86,0,0,1,.66.26.9.9,0,0,1,.26.66V25.08a.9.9,0,0,1-.26.64.84.84,0,0,1-.66.28H17.18a1,1,0,0,1-.79-.28L16,25.34,6.28,10.52V25.08a.89.89,0,0,1-.92.92Z"/></g></svg>